# xmcd
#
# Track frame offsets:
#	150
#	13950
#	33387
#	48069
#	61979
#	81271
#	95408
#	110812
#	122214
#	138166
#	154040
#	168821
#	184680
#
# Disc length: 2719 seconds
#
# Revision: 19
# Processed by: cddbd v1.5.2PL0 Copyright (c) Steve Scherf et al.
# Submitted via: Jack! The Knife 20 Magnifico
#
DISCID=a50a9d0d
DTITLE=Queen - Jazz
DYEAR=1978
DGENRE=Rock
TTITLE0=Mustapha
TTITLE1=Fat Bottomed Girls
TTITLE2=Jealousy
TTITLE3=Bicycle Race
TTITLE4=If You Can't Beat Them
TTITLE5=Let Me Entertain You
TTITLE6=Dead On Time
TTITLE7=In Only Seven Days
TTITLE8=Dreamer's Ball
TTITLE9=Fun It
TTITLE10=Leaving Home Ain't Easy
TTITLE11=Don't Stop Me Now
TTITLE12=More Of That Jazz
EXTD=Queen and Roy Thomas Baker
EXTT0=Freddie Mercury
EXTT1=Brian May
EXTT2=Freddie Mercury
EXTT3=Freddie Mercury
EXTT4=John Deacon
EXTT5=Freddie Mercury
EXTT6=Brian May
EXTT7=John Deacon
EXTT8=Brian May
EXTT9=Roger Taylor
EXTT10=Brian May
EXTT11=Freddie Mercury
EXTT12=Roger Taylor
PLAYORDER=
